HIERARCHY
ROOT Hips
{
	OFFSET 0.000000 0.000000 0.000000
	CHANNELS 6 Xposition Yposition Zposition Xrotation Yrotation Zrotation
	JOINT LeftUpLeg_virtual
	{
		OFFSET 0.000000 0.000000 0.000000
		CHANNELS 3 Xrotation Yrotation Zrotation
		JOINT LeftUpLeg
		{
			OFFSET 15.427100 -6.655098 0.678600
			CHANNELS 3 Xrotation Yrotation Zrotation
			JOINT LeftLeg
			{
				OFFSET 4.081073 -39.591068 13.024000
				CHANNELS 3 Xrotation Yrotation Zrotation
				JOINT LeftFoot
				{
					OFFSET -4.081074 -37.707932 -15.979700
					CHANNELS 3 Xrotation Yrotation Zrotation
					JOINT LeftToeBase
					{
						OFFSET 5.346399 -15.068900 20.645000
						CHANNELS 3 Xrotation Yrotation Zrotation
						JOINT LeftToe_End
						{
							OFFSET 2.754700 0.931300 11.300900
							CHANNELS 3 Xrotation Yrotation Zrotation
							End Site
							{
								OFFSET 0 0 0
							}
						}
					}
				}
			}
		}
	}
	JOINT RightUpLeg_virtual
	{
		OFFSET 0.000000 0.000000 0.000000
		CHANNELS 3 Xrotation Yrotation Zrotation
		JOINT RightUpLeg
		{
			OFFSET -15.569500 -6.655098 0.678600
			CHANNELS 3 Xrotation Yrotation Zrotation
			JOINT RightLeg
			{
				OFFSET -4.081825 -39.591045 13.023800
				CHANNELS 3 Xrotation Yrotation Zrotation
				JOINT RightFoot
				{
					OFFSET 4.081824 -37.707954 -15.979600
					CHANNELS 3 Xrotation Yrotation Zrotation
					JOINT RightToeBase
					{
						OFFSET -5.346400 -15.068900 20.645000
						CHANNELS 3 Xrotation Yrotation Zrotation
						JOINT RightToe_End
						{
							OFFSET -2.754700 0.931300 11.300900
							CHANNELS 3 Xrotation Yrotation Zrotation
							End Site
							{
								OFFSET 0 0 0
							}
						}
					}
				}
			}
		}
	}
	JOINT Spine_virtual
	{
		OFFSET 0.000000 0.000000 0.000000
		CHANNELS 3 Xrotation Yrotation Zrotation
		JOINT Spine
		{
			OFFSET -0.279200 12.230698 -2.892100
			CHANNELS 3 Xrotation Yrotation Zrotation
			JOINT Spine1
			{
				OFFSET -0.232667 10.192268 -1.242267
				CHANNELS 3 Xrotation Yrotation Zrotation
				JOINT Spine1_split
				{
					OFFSET -0.232667 10.192268 -1.242267
					CHANNELS 3 Xrotation Yrotation Zrotation
					JOINT Spine2
					{
						OFFSET -0.232667 10.192268 -1.242267
						CHANNELS 3 Xrotation Yrotation Zrotation
						JOINT Neck_virtual
						{
							OFFSET 0.000000 0.000000 0.000000
							CHANNELS 3 Xrotation Yrotation Zrotation
							JOINT Neck
							{
								OFFSET -0.418800 17.814194 8.416900
								CHANNELS 3 Xrotation Yrotation Zrotation
								JOINT Head
								{
									OFFSET 0.000000 7.031097 3.806800
									CHANNELS 3 Xrotation Yrotation Zrotation
									JOINT HeadTop_End
									{
										OFFSET 0.000000 24.646606 12.978600
										CHANNELS 3 Xrotation Yrotation Zrotation
										End Site
										{
											OFFSET 0 0 0
										}
									}
								}
							}
						}
						JOINT LeftShoulder_virtual
						{
							OFFSET 0.000000 0.000000 0.000000
							CHANNELS 3 Xrotation Yrotation Zrotation
							JOINT LeftShoulder
							{
								OFFSET 8.476499 7.247704 -3.868750
								CHANNELS 3 Xrotation Yrotation Zrotation
								JOINT LeftShoulder_split
								{
									OFFSET 8.476499 7.247704 -3.868750
									CHANNELS 3 Xrotation Yrotation Zrotation
									JOINT LeftArm
									{
										OFFSET 9.308998 -2.777710 0.208600
										CHANNELS 3 Xrotation Yrotation Zrotation
										JOINT LeftForeArm
										{
											OFFSET 29.972298 0.000000 0.000000
											CHANNELS 3 Xrotation Yrotation Zrotation
											JOINT LeftHand
											{
												OFFSET 26.026505 0.000000 0.000000
												CHANNELS 3 Xrotation Yrotation Zrotation
												End Site
												{
													OFFSET 0 0 0
												}
											}
										}
									}
								}
							}
						}
						JOINT RightShoulder_virtual
						{
							OFFSET 0.000000 0.000000 0.000000
							CHANNELS 3 Xrotation Yrotation Zrotation
							JOINT RightShoulder
							{
								OFFSET -7.570500 7.247704 -3.868750
								CHANNELS 3 Xrotation Yrotation Zrotation
								JOINT RightShoulder_split
								{
									OFFSET -7.570500 7.247704 -3.868750
									CHANNELS 3 Xrotation Yrotation Zrotation
									JOINT RightArm
									{
										OFFSET -9.308998 -2.777710 0.208500
										CHANNELS 3 Xrotation Yrotation Zrotation
										JOINT RightForeArm
										{
											OFFSET -29.972300 0.000000 0.000000
											CHANNELS 3 Xrotation Yrotation Zrotation
											JOINT RightHand
											{
												OFFSET -26.026505 0.000000 0.000000
												CHANNELS 3 Xrotation Yrotation Zrotation
												End Site
												{
													OFFSET 0 0 0
												}
											}
										}
									}
								}
							}
						}
					}
				}
			}
		}
	}
}
MOTION
Frames: 4
Frame Time: 0.03333333
-0.232592 66.864594 -84.696213 0.000000 0.000000 0.000000 44.413759 -71.493987 34.605106 -63.482483 -16.935406 26.212804 41.875692 -6.609012 8.599219 12.411097 -1.975075 -20.488802 -3.237473 0.943620 1.757969 0.000000 0.000000 0.000000 45.457299 -72.504254 36.664766 -8.616127 4.496823 -36.743511 36.082657 3.115314 -0.554189 -3.128683 -33.284588 39.505538 0.216427 0.319651 -1.756454 0.000000 0.000000 0.000000 40.339709 -68.050097 30.739543 2.445352 11.578522 -3.919341 -2.766813 5.122677 0.317357 0.823894 -3.191261 1.470080 0.000000 0.000000 0.000000 -1.491785 3.112035 0.852166 10.342255 4.704674 -5.796542 4.398529 17.838511 9.536258 0.000000 0.000000 0.000000 -2.400706 3.599045 0.752556 3.175480 3.217386 -12.344722 4.537704 1.254123 1.616128 -51.501091 -30.612389 -49.459770 -4.092470 -77.087400 -1.959036 0.000000 0.000000 0.000000 -2.485956 3.230605 0.815926 -13.741892 -1.592377 -1.325659 -1.889929 -1.540221 -1.313142 -105.705701 35.922437 120.692462 -2.586098 28.157914 2.434656 0.000000 0.000000 0.000000 
0.957683 67.915863 -92.633011 0.000000 0.000000 0.000000 47.669871 -72.061754 37.948633 -62.866591 -14.666945 26.407176 36.743395 -4.854297 8.134595 16.233198 -0.543368 -18.897643 -3.831964 0.809689 0.838783 0.000000 0.000000 0.000000 46.381431 -73.131368 38.090848 -15.113448 2.797847 -32.697362 42.820635 2.268257 1.501821 -7.135592 -31.486154 36.878189 1.168274 0.256333 -2.027567 0.000000 0.000000 0.000000 42.003748 -68.717454 32.572260 2.211401 10.483505 -3.809652 -2.786159 4.478325 0.507513 0.754755 -2.409263 1.264624 0.000000 0.000000 0.000000 -1.376185 2.451204 1.113137 10.610288 5.194300 -5.958957 4.086585 19.017777 8.821931 0.000000 0.000000 0.000000 -2.346360 2.973853 1.001878 3.184005 3.227223 -12.351356 5.522159 1.632183 1.446306 -50.242247 -30.735428 -49.428129 -3.804234 -77.767031 -1.686329 0.000000 0.000000 0.000000 -2.431448 2.548930 1.031237 -13.783539 -1.831753 -1.872385 -1.172911 -1.173918 -1.706774 -105.563982 35.917472 120.779820 -2.812022 28.116218 2.576844 0.000000 0.000000 0.000000 
2.060351 69.084328 -99.481094 0.000000 0.000000 0.000000 49.868338 -72.316178 39.991751 -64.536443 -12.243552 25.752885 35.090107 -3.370079 6.815499 18.688571 -0.025920 -16.020067 -4.447041 0.693295 0.049539 0.000000 0.000000 0.000000 47.062660 -73.388375 38.891688 -20.140884 -0.304713 -28.055562 47.120826 1.254624 3.361095 -11.420576 -29.837883 33.992462 1.541073 0.206793 -1.798641 0.000000 0.000000 0.000000 44.382651 -69.199324 34.418249 1.827889 9.393732 -3.422193 -2.751503 3.688801 0.712926 0.714661 -1.401329 0.923005 0.000000 0.000000 0.000000 -1.314993 1.606794 1.377442 10.789832 5.633079 -6.141289 3.523071 20.301240 8.116829 0.000000 0.000000 0.000000 -2.279604 2.194870 1.250712 3.201145 3.216021 -12.252945 6.166249 2.292989 1.243336 -49.384962 -31.130407 -49.347140 -2.785387 -78.057963 -0.768353 0.000000 0.000000 0.000000 -2.387275 1.739322 1.259543 -13.897903 -2.055980 -2.456399 -0.583118 -0.948813 -2.182882 -106.144541 35.851526 121.403976 -3.121828 26.867657 2.692759 0.000000 0.000000 0.000000 
2.746926 70.216080 -104.705719 0.000000 0.000000 0.000000 50.374875 -72.026469 40.296060 -67.610554 -9.977100 24.226864 36.540563 -2.485121 5.040981 19.522094 -0.221787 -12.796061 -4.471101 0.625381 -0.423492 0.000000 0.000000 0.000000 46.968240 -73.089226 38.733613 -23.305145 -4.055650 -23.961125 48.873866 -0.014057 4.804915 -15.234590 -28.452656 31.307087 1.396592 0.168274 -1.202156 0.000000 0.000000 0.000000 46.617438 -69.517495 35.914292 1.387855 8.441199 -2.925302 -2.662566 2.960405 0.870259 0.721952 -0.359004 0.675955 0.000000 0.000000 0.000000 -1.329752 0.804213 1.538672 10.823766 5.939236 -6.318509 2.802156 21.401920 7.646364 0.000000 0.000000 0.000000 -2.217084 1.449615 1.413172 3.228346 3.291158 -12.026244 6.427949 3.201345 1.066223 -49.034273 -31.511382 -49.195845 -1.383339 -78.106287 0.473875 0.000000 0.000000 0.000000 -2.352566 0.994914 1.410955 -14.082814 -2.365975 -2.981962 -0.111313 -0.923008 -2.502992 -107.326970 35.908797 122.650281 -3.386745 25.213508 2.720947 0.000000 0.000000 0.000000 
